<svg width="36" height="36" viewBox="0 0 36 36" fill="none" xmlns="http://www.w3.org/2000/svg">
<path d="M27.35 8.65H27.367M9.5 1H26.5C31.1944 1 35 4.80558 35 9.5V26.5C35 31.1944 31.1944 35 26.5 35H9.5C4.80558 35 1 31.1944 1 26.5V9.5C1 4.80558 4.80558 1 9.5 1ZM24.8 16.929C25.0098 18.3438 24.7681 19.7888 24.1094 21.0583C23.4506 22.3279 22.4083 23.3574 21.1308 24.0004C19.8532 24.6435 18.4054 24.8673 16.9932 24.6401C15.5811 24.4129 14.2766 23.7461 13.2652 22.7348C12.2539 21.7234 11.5871 20.4189 11.3599 19.0068C11.1327 17.5946 11.3565 16.1468 11.9996 14.8692C12.6426 13.5917 13.6721 12.5494 14.9417 11.8906C16.2112 11.2319 17.6562 10.9902 19.071 11.2C20.5142 11.414 21.8502 12.0865 22.8819 13.1181C23.9135 14.1498 24.586 15.4858 24.8 16.929Z" stroke="white" stroke-width="2" stroke-linecap="round" stroke-linejoin="round"/>
</svg>
