<svg width="131" height="28" viewBox="0 0 131 28" fill="none" xmlns="http://www.w3.org/2000/svg">
<path d="M9.94266 2.52C12.0307 2.52 13.7947 2.892 15.2347 3.636C16.6747 4.38 17.3947 5.592 17.3947 7.272C17.3947 8.328 17.0587 9.144 16.3867 9.72C15.7147 10.296 14.8387 10.584 13.7587 10.584C13.0147 10.584 12.3907 10.452 11.8867 10.188C12.0547 9.588 12.1387 8.892 12.1387 8.1C12.1387 7.14 11.9227 6.396 11.4907 5.868C11.0827 5.316 10.4227 5.04 9.51066 5.04C8.71866 5.04 8.08266 5.256 7.60266 5.688C7.14666 6.12 6.91866 6.732 6.91866 7.524C6.91866 8.34 7.13466 9.072 7.56666 9.72C7.99866 10.344 8.52666 10.884 9.15066 11.34C9.79866 11.796 10.6747 12.348 11.7787 12.996C13.0747 13.764 14.1187 14.448 14.9107 15.048C15.7267 15.648 16.4107 16.404 16.9627 17.316C17.5387 18.228 17.8267 19.32 17.8267 20.592C17.8267 22.968 16.9867 24.768 15.3067 25.992C13.6267 27.192 11.4427 27.792 8.75466 27.792C6.52266 27.792 4.63866 27.396 3.10266 26.604C1.59066 25.812 0.834656 24.528 0.834656 22.752C0.834656 21.696 1.17066 20.844 1.84266 20.196C2.53866 19.548 3.41466 19.224 4.47066 19.224C5.26266 19.224 5.88666 19.356 6.34266 19.62C6.17466 20.364 6.09066 21 6.09066 21.528C6.09066 24.024 7.12266 25.272 9.18666 25.272C10.1467 25.272 10.9267 25.008 11.5267 24.48C12.1267 23.928 12.4267 23.196 12.4267 22.284C12.4267 21.468 12.2107 20.748 11.7787 20.124C11.3467 19.476 10.8067 18.924 10.1587 18.468C9.51066 17.988 8.64666 17.424 7.56666 16.776C6.27066 16.008 5.21466 15.324 4.39866 14.724C3.60666 14.124 2.92266 13.368 2.34666 12.456C1.79466 11.544 1.51866 10.464 1.51866 9.216C1.51866 7.8 1.90266 6.588 2.67066 5.58C3.43866 4.572 4.45866 3.816 5.73066 3.312C7.02666 2.784 8.43066 2.52 9.94266 2.52ZM23.5757 0.503998C24.5597 0.503998 25.3397 0.731998 25.9157 1.188C26.5157 1.644 26.8157 2.28 26.8157 3.096C26.8157 3.936 26.5037 4.584 25.8797 5.04C25.2557 5.472 24.4517 5.688 23.4677 5.688C22.5077 5.688 21.7157 5.472 21.0917 5.04C20.4917 4.584 20.1917 3.96 20.1917 3.168C20.1917 2.328 20.5037 1.68 21.1277 1.224C21.7757 0.743998 22.5917 0.503998 23.5757 0.503998ZM26.1677 23.4C26.1677 24.072 26.2517 24.66 26.4197 25.164C26.5877 25.668 26.8757 26.112 27.2837 26.496C27.0197 26.832 26.6117 27.084 26.0597 27.252C25.5317 27.444 25.0037 27.54 24.4757 27.54C23.2277 27.54 22.2797 27.228 21.6317 26.604C20.9837 25.956 20.6597 25.008 20.6597 23.76V8.64H26.1677V23.4ZM36.1228 5.4C36.1228 7.848 36.0028 9.588 35.7628 10.62C36.2668 9.732 36.9628 9.06 37.8508 8.604C38.7388 8.148 39.7228 7.92 40.8028 7.92C43.1788 7.92 44.8948 8.82 45.9508 10.62C47.0068 12.396 47.5348 14.712 47.5348 17.568C47.5348 20.736 46.7668 23.232 45.2308 25.056C43.7188 26.88 41.4748 27.792 38.4988 27.792C37.2268 27.792 35.8588 27.624 34.3948 27.288C32.9308 26.952 31.6708 26.508 30.6148 25.956V1.8L36.1228 1.224V5.4ZM36.1228 24.768C36.8908 25.344 37.7548 25.632 38.7148 25.632C40.0108 25.632 40.8508 24.9 41.2348 23.436C41.6188 21.972 41.8108 20.076 41.8108 17.748C41.8108 15.636 41.6188 13.932 41.2348 12.636C40.8748 11.316 40.1068 10.656 38.9308 10.656C37.7548 10.656 36.9868 11.196 36.6268 12.276C36.2908 13.356 36.1228 14.784 36.1228 16.56V24.768ZM64.1137 21.384C64.7377 21.672 65.0497 22.26 65.0497 23.148C65.0497 24.132 64.7257 24.972 64.0777 25.668C63.4297 26.364 62.5897 26.892 61.5577 27.252C60.5497 27.612 59.5057 27.792 58.4257 27.792C55.5457 27.792 53.3617 26.916 51.8737 25.164C50.4097 23.412 49.6777 21.012 49.6777 17.964C49.6777 14.82 50.4697 12.36 52.0537 10.584C53.6617 8.808 55.9777 7.92 59.0017 7.92C60.9457 7.92 62.5537 8.364 63.8257 9.252C65.0977 10.14 65.7337 11.448 65.7337 13.176C65.7337 15.312 64.9777 16.788 63.4657 17.604C61.9537 18.42 59.8897 18.828 57.2737 18.828C56.4577 18.828 55.8217 18.792 55.3657 18.72C55.4377 20.424 55.7617 21.768 56.3377 22.752C56.9377 23.736 57.9337 24.228 59.3257 24.228C60.3577 24.228 61.2937 23.988 62.1337 23.508C62.9977 23.004 63.6577 22.296 64.1137 21.384ZM58.4617 10.044C57.3097 10.044 56.5057 10.752 56.0497 12.168C55.6177 13.56 55.3897 15.192 55.3657 17.064H56.0857C57.5977 17.088 58.7377 16.812 59.5057 16.236C60.2977 15.66 60.6937 14.676 60.6937 13.284C60.6937 12.372 60.5017 11.604 60.1177 10.98C59.7577 10.356 59.2057 10.044 58.4617 10.044ZM76.0673 10.872C75.2033 10.872 74.6513 11.412 74.4113 12.492C74.1713 13.548 74.0513 14.916 74.0513 16.596V27H68.5433V8.64L73.0433 8.208L73.2953 11.448C73.6793 10.344 74.3033 9.48 75.1673 8.856C76.0313 8.232 77.0513 7.92 78.2273 7.92C79.5953 7.92 80.6753 8.316 81.4673 9.108C82.2833 9.876 82.6913 10.932 82.6913 12.276C82.6913 13.404 82.3913 14.268 81.7913 14.868C81.1913 15.468 80.3393 15.768 79.2353 15.768C78.9713 15.768 78.6593 15.732 78.2993 15.66C77.9393 15.588 77.6753 15.492 77.5073 15.372C77.6753 14.844 77.7593 14.22 77.7593 13.5C77.7593 11.748 77.1953 10.872 76.0673 10.872ZM87.3491 0.503998C88.3331 0.503998 89.1131 0.731998 89.6891 1.188C90.2891 1.644 90.5891 2.28 90.5891 3.096C90.5891 3.936 90.2771 4.584 89.6531 5.04C89.0291 5.472 88.2251 5.688 87.2411 5.688C86.2811 5.688 85.4891 5.472 84.8651 5.04C84.2651 4.584 83.9651 3.96 83.9651 3.168C83.9651 2.328 84.2771 1.68 84.9011 1.224C85.5491 0.743998 86.3651 0.503998 87.3491 0.503998ZM89.9411 23.4C89.9411 24.072 90.0251 24.66 90.1931 25.164C90.3611 25.668 90.6491 26.112 91.0571 26.496C90.7931 26.832 90.3851 27.084 89.8331 27.252C89.3051 27.444 88.7771 27.54 88.2491 27.54C87.0011 27.54 86.0531 27.228 85.4051 26.604C84.7571 25.956 84.4331 25.008 84.4331 23.76V8.64H89.9411V23.4ZM104.54 25.38C104.108 26.22 103.46 26.832 102.596 27.216C101.732 27.6 100.76 27.792 99.6803 27.792C97.8323 27.792 96.2723 27.312 95.0003 26.352C93.7283 25.392 93.0923 24.06 93.0923 22.356C93.0923 20.1 94.1363 18.564 96.2243 17.748C98.3123 16.932 100.94 16.524 104.108 16.524V13.392C104.108 12.264 103.952 11.4 103.64 10.8C103.328 10.2 102.716 9.9 101.804 9.9C100.94 9.9 100.268 10.164 99.7883 10.692C99.3083 11.196 99.0683 11.892 99.0683 12.78C99.0683 13.164 99.1403 13.74 99.2843 14.508C99.1163 14.628 98.8643 14.724 98.5283 14.796C98.1923 14.844 97.8803 14.868 97.5923 14.868C96.6083 14.868 95.7923 14.64 95.1443 14.184C94.4963 13.704 94.1723 13.02 94.1723 12.132C94.1723 10.764 94.9403 9.72 96.4763 9C98.0363 8.28 99.8963 7.92 102.056 7.92C104.648 7.92 106.556 8.436 107.78 9.468C109.004 10.5 109.616 12.24 109.616 14.688V23.4C109.616 24.072 109.7 24.66 109.868 25.164C110.036 25.668 110.324 26.112 110.732 26.496C110.468 26.832 110.072 27.084 109.544 27.252C109.04 27.444 108.524 27.54 107.996 27.54C107.108 27.54 106.364 27.36 105.764 27C105.164 26.616 104.756 26.076 104.54 25.38ZM101.372 25.308C102.308 25.308 102.992 24.924 103.424 24.156C103.88 23.388 104.108 22.452 104.108 21.348V18.324C100.556 18.324 98.7803 19.62 98.7803 22.212C98.7803 23.124 98.9963 23.868 99.4283 24.444C99.8843 25.02 100.532 25.308 101.372 25.308ZM113.614 8.64L118.114 8.208L118.366 11.448C119.278 9.096 121.162 7.92 124.018 7.92C126.106 7.92 127.582 8.484 128.446 9.612C129.334 10.74 129.778 12.432 129.778 14.688V23.4C129.778 24.072 129.862 24.66 130.03 25.164C130.198 25.668 130.486 26.112 130.894 26.496C130.63 26.832 130.222 27.084 129.67 27.252C129.142 27.444 128.614 27.54 128.086 27.54C126.838 27.54 125.89 27.228 125.242 26.604C124.594 25.956 124.27 25.008 124.27 23.76V14.976C124.27 13.56 124.138 12.492 123.874 11.772C123.61 11.028 122.986 10.656 122.002 10.656C120.826 10.656 120.046 11.196 119.662 12.276C119.302 13.356 119.122 14.784 119.122 16.56V27H113.614V8.64Z" fill="white"/>
</svg>
